<?xml version="1.0" encoding="UTF-8"?>
<svg id="Layer_2" xmlns="http://www.w3.org/2000/svg" viewBox="0 0 63.65 44.46">
  <defs>
    <style>
      .cls-1 {
        fill: #fff;
      }

      .cls-2 {
        fill: #afe8d3;
      }
    </style>
  </defs>
  <g id="Layer_1-2" data-name="Layer_1">
    <path class="cls-2" d="M30.2,32.02L2.01,2.13c-.66-.7-2.01-.31-2.01.57v39.41c0,1.29,1.26,2.34,2.82,2.34h58.01c1.56,0,2.82-1.05,2.82-2.34V2.71c0-.89-1.35-1.27-2.01-.57l-28.18,29.88c-.83.88-2.43.88-3.26,0Z"/>
    <path class="cls-1" d="M30.84,29.4L5.27,2.29C4.45,1.43,5.07,0,6.26,0h51.13c1.19,0,1.81,1.43.99,2.29l-25.57,27.11c-.54.57-1.44.57-1.98,0Z"/>
  </g>
</svg>