<?xml version="1.0" encoding="UTF-8"?>
<svg id="Layer_2" xmlns="http://www.w3.org/2000/svg" viewBox="0 0 57.92 52.7">
  <defs>
    <style>
      .cls-1 {
        fill: #afe8d3;
      }
    </style>
  </defs>
  <g id="Layer_1-2" data-name="Layer_1">
    <path class="cls-1" d="M48.69,0H9.24C4.13,0,0,4.13,0,9.24v25.28h0s0,18.19,0,18.19l15.51-8.95h33.18c5.1,0,9.24-4.13,9.24-9.24V9.24c0-5.1-4.13-9.24-9.24-9.24ZM49.63,34.08H8.1l-1.52-2.85,1.71-2.74h41.52l1.52,2.85-1.71,2.74ZM49.63,24.67H8.1l-1.52-2.85,1.71-2.74h41.52l1.52,2.85-1.71,2.74ZM49.63,15.25H8.1l-1.52-2.85,1.71-2.74h41.52l1.52,2.85-1.71,2.74Z"/>
  </g>
</svg>